<svg id="圖層_1" data-name="圖層 1" xmlns="http://www.w3.org/2000/svg" viewBox="0 0 191.67 30"><defs><style>.cls-1{fill:#50b3b5;}.cls-2{fill:#2972a7;}.cls-3{fill:#e9ba2d;}.cls-4{fill:#d81261;}.cls-5{fill:#dc5f29;}.cls-6{fill:#6fcbd9;}.cls-7{fill:#f3cf62;}.cls-8{fill:#dc5e2f;}.cls-9{fill:#1e80b9;}</style></defs><title>logo</title><path class="cls-1" d="M13.89,27.26a9.29,9.29,0,0,1-7.34-3.11,10.22,10.22,0,0,1-2.12-3.78L1,19.78a13,13,0,0,0,3.2,6.4A12.15,12.15,0,0,0,13.51,30a21.79,21.79,0,0,0,2.34-.12V27.15A17.82,17.82,0,0,1,13.89,27.26Z"/><path class="cls-2" d="M17.73,27.15v2.73A14.18,14.18,0,0,0,23,28.36V25.41A12.94,12.94,0,0,1,17.73,27.15Z"/><path class="cls-3" d="M3.18,14.87a12.35,12.35,0,0,1,2.93-8.5A9.32,9.32,0,0,1,11,3.43L10.62.65A12.74,12.74,0,0,0,3.89,4.48,15,15,0,0,0,0,15a17.66,17.66,0,0,0,.34,3.49l3.46.59A13.89,13.89,0,0,1,3.18,14.87Z"/><path class="cls-4" d="M4.15,15.75A12.33,12.33,0,0,1,7.08,7.26a9.4,9.4,0,0,1,4.84-2.95l-.33-2.77A12.61,12.61,0,0,0,4.86,5.37,15,15,0,0,0,1,15.93a16.76,16.76,0,0,0,.35,3.48l3.45.6A14,14,0,0,1,4.15,15.75Z"/><path class="cls-5" d="M23,5.32V2.05A16,16,0,0,0,16.51.91a16,16,0,0,0-3.39.37l.33,2.77a12.37,12.37,0,0,1,3-.36A13.33,13.33,0,0,1,23,5.32Z"/><path class="cls-6" d="M51,5.42a11.7,11.7,0,0,0-9.16-3.88,12.48,12.48,0,0,0-9.73,4q-3.6,4-3.6,10.6a14.34,14.34,0,0,0,3.52,10A12,12,0,0,0,41.36,30,12.09,12.09,0,0,0,51,26q3.51-4,3.51-10.59A14.37,14.37,0,0,0,51,5.42ZM48.67,24.2a9.13,9.13,0,0,1-7.33,3.06,8.6,8.6,0,0,1-7-3.24,12.58,12.58,0,0,1-2.63-8.21,12.47,12.47,0,0,1,2.7-8.23,8.89,8.89,0,0,1,7.22-3.27,8.79,8.79,0,0,1,7.17,3.06q2.54,3.06,2.53,8.5C51.29,19.38,50.42,22.15,48.67,24.2Z"/><path class="cls-2" d="M89.27,2V5.63h.06c0,.27,0,.51-.06.77v0C89.12,8.19,89,9.71,89,10.94v18.6h3V2Z"/><path class="cls-7" d="M88.26,2,79.45,21.31c-.08.19-.16.37-.23.55l1.69,2.88L88.35,8.22a15.35,15.35,0,0,0,.82-2.59h0V2Z"/><path class="cls-2" d="M115.91,25.37a6.65,6.65,0,0,1-4.45,1.36H107v2.81h4.78a9.3,9.3,0,0,0,6.36-2.2,8,8,0,0,0,.94-1l-1.82-3.07A4.28,4.28,0,0,1,115.91,25.37Z"/><path class="cls-4" d="M111.67,2H107V4.81h3.77c2.09,0,3.57.48,4.43,1.42l1.71-2.7A8.64,8.64,0,0,0,111.67,2Z"/><path class="cls-6" d="M120.88,17a6.68,6.68,0,0,0-4.43-2.06v-.08a6.76,6.76,0,0,0,3.49-2.5,6.84,6.84,0,0,0,1.24-4,5.61,5.61,0,0,0-2.1-4.57l-.27-.2-1.71,2.7A3.78,3.78,0,0,1,118,8.9a4.54,4.54,0,0,1-1.53,3.65,6.36,6.36,0,0,1-4.26,1.31h-3.31v2.79h3.7c4.52,0,6.79,1.65,6.79,5a5.57,5.57,0,0,1-.24,1.67L121,26.35a7.28,7.28,0,0,0,1.57-4.7A6.53,6.53,0,0,0,120.88,17Z"/><polygon class="cls-4" points="104.96 26.73 104.96 16.65 105 16.65 105 13.86 104.96 13.86 104.96 4.81 105 4.81 105 2 101.94 2 101.94 29.54 105 29.54 105 26.73 104.96 26.73"/><polygon class="cls-6" points="127.94 26.89 127.94 29.54 130.47 29.54 127.94 12.7 127.94 26.89"/><polygon class="cls-2" points="127.94 9.89 127.94 12.7 130.47 29.54 130.81 29.54 130.81 9.89 127.94 9.89"/><polygon class="cls-5" points="130.81 2 127.94 2 127.94 3.93 127.94 5.32 130.81 5.32 130.81 2"/><rect class="cls-4" x="127.94" y="5.95" width="2.87" height="3.31"/><path class="cls-6" d="M141.93,29.54h3V9.92a28.28,28.28,0,0,0-.14-3.55h-2.9Z"/><path class="cls-2" d="M141.93,2V5.69h2.37v0h.09s0,0,0,0h0V2Z"/><path class="cls-5" d="M146,2h-1V5.72a12.42,12.42,0,0,0,.82,1.58L159.15,28,146.76,3.29Z"/><path class="cls-7" d="M164,2h-3V20.53a31,31,0,0,0,.17,3.71H164Z"/><path class="cls-4" d="M161.08,25.7l0,.19H161c0-.11-.41-.74-1.12-1.88L146.76,3.29,159.15,28l1,1.54H164V25.7Z"/><rect class="cls-6" x="173.46" y="2" width="1.42" height="27.53"/><rect class="cls-6" x="175.68" y="2" width="1.42" height="27.53"/><rect class="cls-6" x="177.72" y="2" width="1.42" height="27.53"/><polygon class="cls-8" points="180.22 4.78 191.05 4.78 191.05 2 180.04 2 180.04 4.85 180.22 4.85 180.22 4.78"/><polygon class="cls-9" points="182.26 26.77 180.22 26.77 180.04 26.77 180.04 29.54 191.67 29.54 191.67 26.77 182.26 26.77"/><path class="cls-5" d="M33.85,16a8.43,8.43,0,0,0,2.07,5.88,7.05,7.05,0,0,0,5.48,2.28,8.28,8.28,0,0,0,3.29-.63L34.22,13A11.4,11.4,0,0,0,33.85,16Z"/><path class="cls-4" d="M37.47,8.5A6.88,6.88,0,0,0,36,9.75,7.78,7.78,0,0,0,34.22,13L44.69,23.49A6.59,6.59,0,0,0,47,21.77a7.74,7.74,0,0,0,1.39-2.32Z"/><path class="cls-7" d="M47.05,9.7a6.86,6.86,0,0,0-5.37-2.28A8,8,0,0,0,37.47,8.5l11,11a10.71,10.71,0,0,0,.67-3.89A8.42,8.42,0,0,0,47.05,9.7Z"/><rect class="cls-6" x="62.36" y="2" width="2.57" height="27"/><rect class="cls-2" x="61.91" width="4.01" height="4.01"/><rect class="cls-7" x="61.91" y="28" width="4.01" height="2"/><polygon class="cls-5" points="66.64 1.92 63.92 3 73.61 21.98 71.62 11.66 66.64 1.92"/><polygon class="cls-4" points="73.61 21.98 77.06 29.64 79.22 28.68 72.03 12.7 73.61 21.98"/><polygon class="cls-6" points="75.62 23.74 80.57 22.41 79.25 27.36 75.62 23.74"/><line class="cls-7" x1="103.47" y1="6.57" x2="103.47" y2="28.67"/><rect class="cls-7" x="102.53" y="6.57" width="1.88" height="22.1"/><rect class="cls-6" x="101.94" y="1.87" width="3.62" height="3.62"/><rect class="cls-4" x="143.45" y="11.95" width="1.52" height="17.59"/><rect class="cls-7" x="183.22" y="12.62" width="1.06" height="11.81" transform="translate(72.17 165.69) rotate(-58.59)"/><polygon class="cls-4" points="180.97 15.24 186.98 12.2 186.61 18.93 180.97 15.24"/></svg>